<?xml version="1.0" encoding="iso-8859-1"?>
<!-- Generator: Adobe Illustrator 18.0.0, SVG Export Plug-In . SVG Version: 6.00 Build 0)  -->
<!DOCTYPE svg PUBLIC "-//W3C//DTD SVG 1.1//EN" "http://www.w3.org/Graphics/SVG/1.1/DTD/svg11.dtd">
<svg version="1.1" id="Capa_1" xmlns="http://www.w3.org/2000/svg" xmlns:xlink="http://www.w3.org/1999/xlink" x="0px" y="0px"
	 viewBox="0 0 509.136 509.136" style="enable-background:new 0 0 509.136 509.136;" xml:space="preserve">
<g>
	<path d="M62.536,232.992c0.291-0.204,0.579-0.426,0.862-0.671c18.353-15.894,36.706-31.788,55.06-47.683
		c5.255,6.604,10.511,13.209,15.766,19.813c7.201,9.05,13.913,19.377,22.291,27.41c10.438,10.008,26.679,12.797,39.961,7.386
		c5.565-2.267,9.995-5.859,14.502-9.67c10.687-9.035,21.373-18.069,32.06-27.104c7.007-5.924,14.013-11.847,21.02-17.771
		c4.749,6.186,9.497,12.372,14.246,18.558c4.42,5.758,8.84,11.516,13.26,17.273c3.088,4.022,6.041,8.356,9.79,11.776
		c10.447,9.527,26.021,12.227,39.121,7.083c5.576-2.19,10.031-5.775,14.568-9.521c10.732-8.863,21.464-17.725,32.196-26.588
		c7.462-6.162,14.924-12.324,22.385-18.486c4.71,6.369,9.419,12.737,14.129,19.106c4.211,5.694,8.421,11.387,12.632,17.081
		c3.673,4.967,7.161,9.875,12.194,13.625c11.788,8.786,26.771,9.201,39.84,3.21c12.125-5.559,18.869-18.125,20.475-30.79
		c1.77-13.951-6.465-24.385-14.123-34.741c-15.652-21.165-31.304-42.331-46.957-63.496c-13.693-18.516-38.661-22.066-56.607-7.246
		c-8.442,6.971-16.884,13.943-25.326,20.915c-11.01,9.092-22.019,18.184-33.029,27.275c-4.811-6.267-9.621-12.534-14.432-18.801
		c-4.444-5.79-8.889-11.58-13.333-17.369c-3.104-4.044-6.073-8.402-9.847-11.835c-10.275-9.346-25.448-12.081-38.418-7.332
		c-5.825,2.133-10.472,5.834-15.12,9.763c-10.503,8.88-21.006,17.76-31.51,26.639c-7.492,6.334-14.983,12.667-22.475,19.001
		c-5.213-6.551-10.426-13.102-15.639-19.654c-7.071-8.886-13.74-18.417-21.475-26.747c-9.452-10.179-24.521-13.336-37.624-9.888
		c-6.45,1.697-11.766,5.578-16.71,9.86c-8.682,7.519-17.363,15.037-26.045,22.555c-18.627,16.132-37.255,32.263-55.882,48.395
		C1.073,185.818-3.938,204.215,3.8,220.428C14.712,243.288,43.434,247.899,62.536,232.992z M22.078,191.913
		c1.64-2.456,4.685-4.592,6.939-6.543c3.931-3.405,7.862-6.809,11.794-10.214c21.812-18.89,43.624-37.78,65.437-56.67
		c5.963-5.164,11.351-8.89,19.927-8.326c9.144,0.601,14.57,9.339,19.715,15.804c11.406,14.334,22.812,28.668,34.219,43.002
		c3.234,4.065,9.322,2.88,12.728,0c18.927-16.001,37.853-32.002,56.78-48.004c2.61-2.207,5.22-4.413,7.83-6.62
		c7.581-6.409,19.062-5.342,26.149,1.105c0.025,0.022,3.148,3.559,1.56,1.489c0.062,0.081,0.124,0.162,0.187,0.243
		c0.33,0.43,0.661,0.861,0.991,1.291c1.496,1.949,2.992,3.898,4.488,5.847c4.626,6.027,9.253,12.053,13.879,18.08
		c6.317,8.228,12.633,16.457,18.949,24.685c3.741,4.874,9.271,5.838,14.135,1.821c19.152-15.816,38.304-31.632,57.456-47.448
		c2.898-2.393,5.796-4.786,8.694-7.18c7.394-6.106,17.446-5.063,24.904,0.078c0.79,0.545,4.118,4.452,3.064,3.026
		c0.163,0.221,0.326,0.441,0.489,0.662c0.949,1.283,1.898,2.566,2.847,3.85c3.548,4.797,7.095,9.595,10.643,14.392
		c9.414,12.729,18.827,25.458,28.24,38.187c5.362,7.251,13.703,15.637,16.28,24.5c2.781,9.566-2.85,20.143-12.021,23.715
		c-4.993,1.944-10.758,1.836-15.636-0.414c-2.609-1.204-4.662-2.887-6.644-4.927c-0.319-0.328-0.554-0.567-0.74-0.753
		c-0.02-0.054-0.1-0.181-0.295-0.445c-7.783-10.525-15.567-21.049-23.35-31.574c-4.249-5.745-8.498-11.491-12.747-17.236
		c-3.659-4.948-9.335-5.785-14.135-1.822c-19.169,15.83-38.339,31.661-57.508,47.491c-2.774,2.291-5.549,4.582-8.323,6.873
		c-7.598,6.275-18.981,5.123-25.997-1.276c-0.035-0.032-3.134-3.548-1.537-1.467c-0.062-0.08-0.124-0.161-0.185-0.241
		c-0.328-0.428-0.657-0.856-0.986-1.284c-1.488-1.938-2.976-3.876-4.463-5.814c-4.601-5.993-9.201-11.987-13.802-17.98
		c-6.282-8.183-12.563-16.366-18.845-24.549c-3.708-4.831-9.314-5.897-14.135-1.822c-18.943,16.015-37.886,32.03-56.829,48.045
		c-2.479,2.096-4.958,4.192-7.437,6.288c-9.065,7.664-21.718,4.298-28.734-4.049c-7.212-8.578-13.982-17.571-20.959-26.339
		c-6.367-8.002-12.734-16.003-19.101-24.005c-3.21-4.033-9.354-2.922-12.728,0c-20.865,18.07-41.73,36.139-62.595,54.208
		c-7.658,6.31-18.937,5.694-26.19-0.855C16.594,211.617,16.444,200.351,22.078,191.913z"/>
	<path d="M447.411,283.25c-0.247-0.334-0.513-0.649-0.787-0.953c-0.196-0.295-0.4-0.586-0.621-0.869
		c-13.414-17.198-38.309-18.497-54.695-4.965c-6.294,5.198-12.589,10.396-18.884,15.594c-13.191,10.894-26.382,21.787-39.574,32.68
		c-4.811-6.267-9.621-12.534-14.432-18.801c-4.444-5.79-8.889-11.58-13.333-17.369c-3.104-4.044-6.073-8.402-9.847-11.835
		c-10.276-9.347-25.447-12.08-38.418-7.331c-5.825,2.132-10.472,5.833-15.12,9.763c-10.503,8.88-21.006,17.76-31.51,26.639
		c-7.492,6.334-14.983,12.667-22.475,19.001c-5.213-6.551-10.426-13.102-15.639-19.654c-7.071-8.886-13.74-18.417-21.475-26.747
		c-9.453-10.18-24.52-13.335-37.624-9.887c-6.45,1.697-11.766,5.577-16.71,9.859c-8.682,7.519-17.363,15.037-26.045,22.555
		c-19.102,16.543-38.205,33.086-57.307,49.63c-7.974,6.906-12.09,16.705-12.834,27.071c-0.952,13.26,6.453,25.29,16.758,32.916
		c9.86,7.296,24.335,8.305,35.45,3.643c5.468-2.293,9.854-5.784,14.265-9.605c17.3-14.982,34.601-29.965,51.901-44.948
		c5.255,6.604,10.511,13.209,15.766,19.813c7.201,9.05,13.913,19.377,22.291,27.41c10.439,10.009,26.679,12.796,39.961,7.386
		c5.565-2.267,9.995-5.859,14.502-9.669c10.687-9.035,21.373-18.069,32.06-27.104c7.007-5.924,14.013-11.847,21.02-17.771
		c4.749,6.186,9.497,12.372,14.246,18.558c4.42,5.758,8.84,11.516,13.26,17.273c3.088,4.022,6.041,8.356,9.79,11.776
		c10.448,9.528,26.02,12.226,39.121,7.083c5.577-2.189,10.031-5.774,14.568-9.521c10.732-8.863,21.464-17.725,32.196-26.588
		c7.462-6.162,14.924-12.324,22.385-18.486c4.71,6.369,9.419,12.737,14.129,19.106c4.211,5.694,8.421,11.387,12.632,17.081
		c3.673,4.967,7.161,9.875,12.194,13.625c11.788,8.786,26.771,9.201,39.84,3.21c12.125-5.559,18.869-18.125,20.475-30.79
		c1.77-13.951-6.465-24.385-14.123-34.741C478.984,325.943,463.198,304.597,447.411,283.25z M472.706,398.991
		c-5.135,0.435-10.425-1.192-14.395-4.49c-0.792-0.658-3.678-3.94-2.92-2.916c-0.355-0.48-0.71-0.96-1.065-1.44
		c-11.786-15.937-23.571-31.873-35.357-47.81c-3.659-4.948-9.335-5.785-14.135-1.822c-19.169,15.83-38.339,31.661-57.508,47.491
		c-2.774,2.291-5.549,4.582-8.323,6.873c-7.598,6.274-18.981,5.122-25.997-1.276c-0.035-0.032-3.134-3.548-1.537-1.467
		c-0.062-0.08-0.124-0.161-0.185-0.241c-0.328-0.428-0.657-0.856-0.986-1.284c-1.488-1.938-2.976-3.876-4.463-5.814
		c-4.601-5.993-9.201-11.987-13.802-17.98c-6.282-8.183-12.563-16.366-18.845-24.549c-3.708-4.831-9.314-5.897-14.135-1.822
		c-18.943,16.015-37.886,32.03-56.829,48.045c-2.479,2.096-4.958,4.192-7.437,6.288c-9.065,7.664-21.718,4.297-28.734-4.049
		c-7.212-8.578-13.982-17.571-20.959-26.339c-6.367-8.002-12.734-16.003-19.101-24.005c-3.21-4.033-9.354-2.922-12.728,0
		c-18.695,16.19-37.39,32.381-56.085,48.571c-2.17,1.879-4.34,3.759-6.51,5.638c-7.487,6.484-19.073,5.572-26.19-0.855
		c-7.886-7.121-8.036-18.388-2.402-26.826c1.64-2.456,4.685-4.592,6.939-6.543c21.551-18.664,43.103-37.328,64.654-55.992
		c5.886-5.097,11.578-10.809,17.866-15.418c9.221-6.758,21.399-4.275,28.3,4.399c2.33,2.928,4.66,5.855,6.989,8.783
		c11.094,13.942,22.188,27.883,33.281,41.824c3.234,4.065,9.322,2.88,12.728,0c18.927-16.001,37.853-32.002,56.78-48.004
		c2.61-2.207,5.22-4.413,7.83-6.62c7.581-6.409,19.062-5.342,26.149,1.105c0.025,0.022,3.148,3.559,1.56,1.489
		c0.062,0.081,0.124,0.162,0.187,0.243c0.33,0.43,0.661,0.861,0.991,1.291c1.496,1.949,2.992,3.898,4.488,5.847
		c4.626,6.027,9.253,12.053,13.879,18.08c6.317,8.228,12.633,16.457,18.949,24.685c3.741,4.874,9.271,5.838,14.135,1.821
		c14.104-11.648,28.209-23.295,42.313-34.943c7.326-6.05,14.653-12.1,21.979-18.15c9.949-8.216,22.554-7.161,30.752,2.822
		c14.42,19.498,28.839,38.997,43.259,58.495c5.476,7.405,14.43,16.36,14.949,25.975C491.61,388.724,483.285,398.095,472.706,398.991
		z"/>
</g>
<g>
</g>
<g>
</g>
<g>
</g>
<g>
</g>
<g>
</g>
<g>
</g>
<g>
</g>
<g>
</g>
<g>
</g>
<g>
</g>
<g>
</g>
<g>
</g>
<g>
</g>
<g>
</g>
<g>
</g>
</svg>
