<?xml version="1.0" encoding="iso-8859-1"?>
<!-- Generator: Adobe Illustrator 18.0.0, SVG Export Plug-In . SVG Version: 6.00 Build 0)  -->
<!DOCTYPE svg PUBLIC "-//W3C//DTD SVG 1.1//EN" "http://www.w3.org/Graphics/SVG/1.1/DTD/svg11.dtd">
<svg version="1.1" id="Capa_1" xmlns="http://www.w3.org/2000/svg" xmlns:xlink="http://www.w3.org/1999/xlink" x="0px" y="0px"
	 viewBox="0 0 508.885 508.885" style="enable-background:new 0 0 508.885 508.885;" xml:space="preserve">
<path d="M508.376,138.614c-6.154-34.631-29.52-68.449-62.219-82.426c-23.881-10.208-51.409-10.611-76.067-2.741
	c-24.193,7.721-44.259,24.572-59.765,44.276c-15.823,20.107-27.269,42.945-36.998,66.502c-7.32,17.723-13.382,35.947-18.642,54.398
	c-12.464-44.618-29.623-89.073-58.861-124.784c-15.755-19.244-36.466-34.654-60.535-41.571c-24.826-7.135-51.951-5.439-75.393,5.345
	C39.8,66.858,23.999,84.078,13.645,103.342c-6.749,12.556-12.181,26.868-13.498,41.179c-2.477,26.914,26.997,46.362,51.19,37.312
	c11.916-4.458,20.808-14.614,23.764-26.977c2.021-8.451,4.842-16.558,10.673-23.244c7.388-8.472,18.561-8.897,28.861-6.195
	c3.743,0.982,3.674,1.061,7.378,3.187c3.883,2.228,5.211,3.41,8.293,6.225c15.331,14,25.032,33.983,33.185,52.75
	c11.732,27.004,19.634,55.767,26.412,84.356c6.513,27.469,11.567,55.274,15.923,83.16c3.508,22.456,6.062,45.056,9.621,67.5
	c1.955,12.326,6.517,23.569,16.851,31.166c8.23,6.049,18.592,8.233,28.605,6.681c10.872-1.686,19.887-8.199,25.988-17.182
	c6.726-9.903,7.376-23.142,8.949-34.638c3.151-23.024,6.279-46.042,10.092-68.969c4.761-28.631,10.479-57.122,17.777-85.219
	c7.167-27.596,15.849-55.112,28.488-80.735c4.824-9.78,10.351-19.249,16.877-27.995c2.301-3.084,5.012-6.045,7.747-8.813
	c3.156-3.194,5.194-4.879,8.253-6.929c1.404-0.941,2.876-1.775,4.371-2.561c0.582-0.306,1.178-0.583,1.776-0.856
	c-0.935,0.438,0.991-0.366,1.206-0.442c4.959-1.776,10.283-2.247,15.514-2.101c11.048,0.308,17.604,8.874,22.091,17.992
	c3.912,7.949,4.307,16.893,9.109,24.51c6.503,10.317,17.309,15.867,29.128,17.307c11.253,1.371,22.964-3.911,30.638-11.911
	c8.38-8.737,11.054-20.45,9.606-32.121C508.484,139.384,508.443,138.994,508.376,138.614z M476.874,165.115
	c-9.979,3.157-19.673-2.311-24.182-11.206c-1.712-3.377-1.956-7.758-3.161-11.382c-1.771-5.327-4.168-10.518-7.073-15.318
	c-6.476-10.699-16.571-18.793-29.136-20.632c-46.241-6.768-71.144,43.198-85.878,78.522c-22.227,53.29-33.06,111.376-41.82,168.19
	c-3.467,22.487-5.772,45.201-9.685,67.612c-1.635,9.364-5.749,17.965-14.782,21.037c-6.492,2.208-13.766,1.4-19.776-3.835
	c-8.147-7.097-8.535-19.515-9.935-29.467c-1.55-11.02-2.979-22.057-4.53-33.076c-3.633-25.821-7.794-51.568-12.875-77.146
	c-5.86-29.499-13-58.809-22.54-87.347c-8.077-24.161-17.92-48.473-32.307-69.633c-9.642-14.183-22.185-27.934-39.04-33.163
	c-11.976-3.715-25.666-3.199-36.883,2.466c-10.705,5.407-17.626,16.866-21.978,27.589c-3.407,8.396-3.585,17.263-10.72,23.631
	c-7.103,6.339-18.816,5.334-25.682-0.649c-11.548-10.063-5.357-26.064-0.769-37.98c6.92-17.974,19.952-35.618,37.182-46.09
	c19.895-12.091,44.291-13.668,66.582-8.304c49.476,11.905,76.907,64.488,93.862,108.02c10.117,25.974,17.724,52.895,24.205,79.982
	c2.06,8.611,15.297,8.611,17.357,0c7.279-30.421,16.063-60.542,28.015-89.481c9.708-23.504,22.122-46.713,39.08-65.807
	c16.215-18.257,36.367-30.662,60.576-34.616c21.844-3.568,44.227,1.114,62.375,13.73c20.005,13.907,32.975,38.023,37.426,61.393
	c0.047,0.423,0.115,0.842,0.226,1.246C492.444,153.126,485.993,162.23,476.874,165.115z"/>
<g>
</g>
<g>
</g>
<g>
</g>
<g>
</g>
<g>
</g>
<g>
</g>
<g>
</g>
<g>
</g>
<g>
</g>
<g>
</g>
<g>
</g>
<g>
</g>
<g>
</g>
<g>
</g>
<g>
</g>
</svg>
