<?xml version="1.0" encoding="iso-8859-1"?>
<!-- Generator: Adobe Illustrator 18.0.0, SVG Export Plug-In . SVG Version: 6.00 Build 0)  -->
<!DOCTYPE svg PUBLIC "-//W3C//DTD SVG 1.1//EN" "http://www.w3.org/Graphics/SVG/1.1/DTD/svg11.dtd">
<svg version="1.1" id="Capa_1" xmlns="http://www.w3.org/2000/svg" xmlns:xlink="http://www.w3.org/1999/xlink" x="0px" y="0px"
	 viewBox="0 0 457.359 457.359" style="enable-background:new 0 0 457.359 457.359;" xml:space="preserve">
<g>
	<path d="M107.085,269.891c4.614,0.604,9.269,0.832,13.919,0.861c46.203-0.287,89.192-27.13,109.153-68.931
		c19.375-40.574,13.821-88.663-12.274-124.141c43.27,1.27,85.799,14.074,120.897,40.188c17.44,12.976,32.066,29.846,42.286,49.014
		c2.574,4.827,4.421,10.013,7.712,14.421c3.986,5.34,9.14,9.613,15.292,12.232c13.175,5.609,28.137,3.661,39.329-5.361
		c9.467-7.632,14.62-19.777,13.844-31.878c-0.8-12.469-8.462-24.607-14.703-35.107c-13.256-22.302-30.902-41.973-50.97-58.339
		C346.837,26.37,290.82,6.505,233.564,2.263c-65.168-4.828-131.422,11.774-184.525,50.31c-0.544,0.395-1.062,0.858-1.547,1.364
		c-19.74,15.598-34.312,35.984-42.036,60.07c-7.559,23.572-7.065,49.8,0.546,73.275C20.569,232.216,60.697,263.822,107.085,269.891z
		 M58.186,68.201c0.308-0.236,0.607-0.497,0.901-0.769c44.419-31.914,96.881-47.473,151.42-47.918
		c56.987-0.465,113.636,16.293,159.993,49.682c20.565,14.812,38.583,33.503,52.495,54.68c6.268,9.541,13.864,20.833,16.209,32.147
		c1.978,9.545-5.124,18.919-13.798,21.864c-11.138,3.781-20.903-3.186-25.332-13.031c-4.507-10.017-10.368-19.388-17.042-28.095
		c-14.35-18.721-32.442-34.069-52.693-46.1c-39.503-23.469-86.42-33.062-132.038-30.781c-7.58,0.379-12.255,9.658-6.364,15.364
		c31.608,30.62,41.192,78.72,22.104,118.69c-17.052,35.708-53.581,58.573-93.038,58.818c-41.267-0.256-79.728-25.497-95.353-63.97
		C8.444,146.417,21.77,96.095,58.186,68.201z"/>
	<path d="M121.003,212.752c23.771-0.302,45.758-13.658,56.399-35.042c10.915-21.933,7.697-48.585-7.601-67.57
		c-15.198-18.861-39.913-26.713-63.361-21.595c-22.919,5.002-41.184,24.189-46.688,46.688
		C50.153,174.478,81.312,212.248,121.003,212.752z M102.175,108.939c18.234-9.074,42.027-2.837,54.281,13.136
		c12.779,16.658,12.608,40.521-1.033,56.647c-8.622,10.193-21.134,15.861-34.419,16.029c-21.167-0.269-38.885-14.705-43.893-35.178
		C72.043,138.858,83.666,118.15,102.175,108.939z"/>
	<path d="M62.153,391.459c43.844,37.265,99.443,57.956,156.393,63.198c66.805,6.15,135.28-10.319,189.806-49.887
		c0.544-0.395,1.062-0.858,1.547-1.364c19.74-15.598,34.312-35.984,42.036-60.069c7.56-23.572,7.065-49.8-0.546-73.275
		c-14.568-44.935-54.696-76.541-101.084-82.609c-4.614-0.604-9.269-0.832-13.919-0.861c-46.203,0.287-89.191,27.131-109.152,68.931
		c-19.375,40.574-13.821,88.662,12.273,124.14c-43.27-1.269-85.799-14.073-120.897-40.187
		c-17.44-12.976-32.065-29.846-42.285-49.014c-2.522-4.731-4.339-9.825-7.52-14.173c-3.797-5.191-8.741-9.389-14.588-12.105
		c-11.707-5.437-25.107-4.562-36.167,2.021C7.091,272.73,1,284.629,0.078,297.061c-0.926,12.492,6.593,24.728,12.496,35.192
		C25.272,354.765,42.498,374.754,62.153,391.459z M31.276,279.683c9.341-3.372,19.28,0.765,24.249,9.112
		c2.693,4.524,4.57,9.592,7.144,14.208c2.784,4.993,5.94,9.772,9.295,14.397c13.794,19.02,31.56,34.675,51.449,47.085
		c40.182,25.072,88.696,35.328,135.677,32.978c7.58-0.379,12.254-9.658,6.364-15.364c-31.609-30.62-41.191-78.72-22.104-118.69
		c17.052-35.708,53.581-58.573,93.038-58.818c41.268,0.256,79.729,25.496,95.354,63.97c17.206,42.365,3.881,92.687-32.536,120.581
		c-0.308,0.236-0.607,0.497-0.901,0.769c-44.419,31.914-96.882,47.473-151.421,47.918c-56.987,0.465-113.636-16.293-159.993-49.682
		c-20.565-14.812-38.583-33.503-52.495-54.68c-6.268-9.541-13.864-20.833-16.208-32.147
		C16.295,292.187,22.917,282.701,31.276,279.683z"/>
	<path d="M350.95,368.799c22.919-5.002,41.185-24.189,46.688-46.688c9.601-39.246-21.56-77.016-61.251-77.52
		c-23.771,0.302-45.757,13.659-56.399,35.043c-10.915,21.933-7.696,48.584,7.601,67.57
		C302.787,366.066,327.503,373.917,350.95,368.799z M301.968,278.621c8.621-10.193,21.134-15.861,34.419-16.03
		c21.167,0.269,38.886,14.705,43.895,35.179c5.067,20.715-6.556,41.423-25.065,50.634c-18.235,9.074-42.027,2.838-54.281-13.136
		C288.157,318.611,288.328,294.748,301.968,278.621z"/>
</g>
<g>
</g>
<g>
</g>
<g>
</g>
<g>
</g>
<g>
</g>
<g>
</g>
<g>
</g>
<g>
</g>
<g>
</g>
<g>
</g>
<g>
</g>
<g>
</g>
<g>
</g>
<g>
</g>
<g>
</g>
</svg>
