<?xml version="1.0" encoding="iso-8859-1"?>
<!-- Generator: Adobe Illustrator 18.0.0, SVG Export Plug-In . SVG Version: 6.00 Build 0)  -->
<!DOCTYPE svg PUBLIC "-//W3C//DTD SVG 1.1//EN" "http://www.w3.org/Graphics/SVG/1.1/DTD/svg11.dtd">
<svg version="1.1" id="Capa_1" xmlns="http://www.w3.org/2000/svg" xmlns:xlink="http://www.w3.org/1999/xlink" x="0px" y="0px"
	 viewBox="0 0 499.032 499.032" style="enable-background:new 0 0 499.032 499.032;" xml:space="preserve">
<path d="M388.677,213.524c-16.735,0.144-33.105,3.903-48.064,11.091c-5.032-26.473-11.243-52.749-19.67-78.356
	c-8.049-24.457-18.22-48.977-33.539-69.839c-16.505-22.478-39.675-39.114-68.177-40.762c-26.977-1.56-52.335,10.976-72.165,28.328
	c-14.415,12.614-26.136,28.294-36.091,44.786c-7.566-16.492-16.807-32.106-28.568-46.1c-6.939-8.256-15.117-16.207-24.435-21.766
	C35.741,27.643,6.331,39.932,0.814,65.37c-2.927,13.497,2.254,26.845,12.169,36.106c1.937,1.809,4.136,3.41,6.335,4.891
	c0.578,0.49,1.143,0.994,1.693,1.514c1.062,1.005,2.069,2.066,3.052,3.148c0.605,0.665,1.19,1.347,1.77,2.033
	c0.282,0.334,1.237,1.541,1.623,2.019c3.234,4.286,6.101,8.844,8.738,13.516c8.759,15.52,14.268,31.73,18.868,49.331
	c3.3,12.626,5.711,25.474,7.62,38.379c1.025,6.927,1.457,13.961,2.686,20.851c1.148,6.434,4.691,12.169,8.776,17.125
	c17.01,20.631,51.094,14.455,62.411-8.587c2.786-5.673,3.989-12.216,5.774-18.25c3.481-11.77,7.519-23.373,11.983-34.805
	c9.799-25.097,22.311-51.836,42.057-70.739c3.041-2.911,6.076-5.207,9.731-7.315c1.697-0.979,3.19-1.583,3.924-1.846
	c0.838-0.3,1.699-0.527,2.559-0.751c0.5-0.122,1.005-0.224,1.511-0.318c0.089-0.008,0.181-0.017,0.292-0.028
	c0.436-0.039,1.135-0.008,1.651,0.018c0.051,0.016,0.103,0.03,0.154,0.047c0.032,0.017,0.052,0.028,0.087,0.046
	c0.78,0.402,1.517,0.883,2.238,1.381c0.052,0.036,0.086,0.058,0.129,0.088c0.119,0.106,0.265,0.234,0.474,0.413
	c0.769,0.66,1.497,1.368,2.213,2.084c0.809,0.81,1.573,1.663,2.326,2.524c0.41,0.47,0.806,0.952,1.202,1.435
	c0.16,0.195,0.277,0.337,0.373,0.452c0.023,0.039,0.102,0.149,0.276,0.383c4.339,5.82,7.864,12.235,11.07,18.731
	c13.962,28.286,21.379,60.041,27.68,90.756c5.806,28.305,10.039,56.965,12.988,85.709c-8.317,13.858-17.91,26.91-28.915,38.763
	c-7.548,8.13-15.817,15.638-24.967,21.925c-4.576,3.144-9.404,5.902-14.388,8.342c-5.432,2.66-11.295,4.019-16.84,6.363
	c-24.844,10.502-29.781,43.687-11.037,62.194c21.42,21.148,53.534,4.941,74.911-7.697c20.029-11.841,37.67-27.622,53.052-45.071
	c33.057,34.376,85.479,43.355,128.757,22.449c42.737-20.645,66.802-68.701,60.099-115.208
	C490.183,254.086,442.558,213.892,388.677,213.524z M19.877,106.757C20.342,107.096,20.721,107.406,19.877,106.757L19.877,106.757z
	 M422.362,410.24c-38.412,14.945-81.498,2.07-107.026-29.785c-2.872-3.583-9.839-3.497-12.728,0
	c-15.931,19.287-34.196,36.631-55.68,49.603c-11.314,6.831-24.093,13.107-37.139,15.699c-10.262,2.039-19.528-6.379-21.962-15.632
	c-2.57-9.772,3.601-18.852,12.126-22.942c4.878-2.34,10.581-3.535,15.598-5.734c5.505-2.413,10.725-5.445,15.746-8.734
	c18.967-12.425,34.434-29.403,47.87-47.49c4.765-6.414,9.197-13.079,13.336-19.912c2.374-3.918,3.013-7.145,2.538-11.675
	c-0.496-4.735-1.039-9.466-1.608-14.193c-3.376-28.052-7.819-55.996-13.796-83.616c-5.727-26.464-13.019-52.68-23.78-77.569
	c-5.548-12.834-12.433-26.125-22.549-36.009c-28.447-27.796-62.375,18.836-75.27,40.876c-14.294,24.432-24.605,51.465-32.762,78.509
	c-1.571,5.209-2.454,11.285-4.865,16.195c-4.499,9.161-14.797,12.877-24.314,10.111c-11.734-3.41-13.272-14.891-14.541-25.186
	c-1.708-13.861-3.997-27.642-7.099-41.261c-4.397-19.306-10.666-38.318-19.559-56.039c-4.992-9.948-11.109-19.553-18.666-27.764
	c-2.121-2.305-4.417-4.293-6.899-6.195c-6.707-5.141-11.545-10.722-11.333-19.629c0.319-13.387,15.697-22.321,27.691-17.14
	c2.113,0.913,4.137,2.254,6.037,3.556c0.428,0.294,1.929,1.418,2.328,1.703c1.238,0.988,2.45,2.009,3.638,3.056
	c20.413,17.983,33.847,43.285,43.423,68.478c2.574,6.772,12.475,9.623,16.45,2.15c13.007-24.455,29.131-48.715,52.18-64.798
	c19.783-13.804,46.431-20.558,69.383-10.607c24.051,10.428,39.148,33.944,50.153,56.645c11.913,24.574,19.609,51.213,26.061,77.665
	c3.899,15.986,7.146,32.129,10.024,48.328c1.009,5.68,8.614,8.279,13.221,5.379c15.174-9.554,32.145-14.604,50.087-14.758
	c44.483,0.304,82.31,32.178,90.997,75.637C488.237,349.997,462.761,394.521,422.362,410.24z"/>
<path d="M408.295,275.401c-23.303-9.662-49.486-0.377-63.544,19.911c-13.977,20.172-10.007,48.015,6.366,65.381
	c9.4,9.97,22.896,15.319,36.441,15.804c0.361,0.033,0.733,0.05,1.12,0.044c0.38,0.006,0.745-0.009,1.1-0.041
	c24.167-0.878,45.291-17.876,50.301-41.818C445.257,309.935,431.423,284.99,408.295,275.401z M388.678,358.541
	c-19.022-0.303-34.188-15.444-34.508-34.469c-0.309-18.384,15.039-33.661,33.102-34.525c18.893-0.904,34.998,14.394,35.892,33.08
	C424.1,342.198,407.909,358.234,388.678,358.541z"/>
<g>
</g>
<g>
</g>
<g>
</g>
<g>
</g>
<g>
</g>
<g>
</g>
<g>
</g>
<g>
</g>
<g>
</g>
<g>
</g>
<g>
</g>
<g>
</g>
<g>
</g>
<g>
</g>
<g>
</g>
</svg>
