<?xml version="1.0" encoding="iso-8859-1"?>
<!-- Generator: Adobe Illustrator 18.0.0, SVG Export Plug-In . SVG Version: 6.00 Build 0)  -->
<!DOCTYPE svg PUBLIC "-//W3C//DTD SVG 1.1//EN" "http://www.w3.org/Graphics/SVG/1.1/DTD/svg11.dtd">
<svg version="1.1" id="Capa_1" xmlns="http://www.w3.org/2000/svg" xmlns:xlink="http://www.w3.org/1999/xlink" x="0px" y="0px"
	 viewBox="0 0 500.979 500.979" style="enable-background:new 0 0 500.979 500.979;" xml:space="preserve">
<g>
	<path d="M455.127,358.988c-0.42-0.084-0.851-0.153-1.307-0.186c-0.324-0.039-0.643-0.049-0.959-0.039
		c-11.882-0.544-23.675,4.591-31.167,13.892c-3.814,4.734-6.481,10.148-7.776,16.104c-1.297,5.963-0.522,5.985-1.939,11.433
		c-1.665,6.402-4.546,11.164-10.012,15.886c-6.032,5.211-16.613,7.875-25.378,8.644c-11.583,1.016-22.994,0.053-32.853-6.521
		c-7.956-5.305-13.277-14.829-16.743-23.494c-9.934-24.837-10.603-52.857-9.075-79.198c1.75-30.167,7.876-59.993,16.123-89.011
		c4.315-15.183,9.366-30.08,12.876-45.489c3.104-13.626,5.208-27.53,6.169-41.473c1.574-22.837-0.837-46.603-9.785-67.825
		c-8.587-20.368-22.584-37.383-40.971-49.682C282.257,8.604,258.051,2.844,234.294,0.763c-25.585-2.241-52.023,0.289-76.006,9.803
		c-22.28,8.839-41.241,23.302-55.354,42.688c-15.389,21.137-22.396,47.563-22.594,73.47c-0.179,23.328,5.597,46.573,14.619,67.96
		c7.452,17.664,17.031,34.415,25.951,51.438c-41.917,1.913-81.098,26.895-98.986,65.615c-20.007,43.307-9.463,95.098,25.048,127.787
		c33.112,31.364,83.14,39.482,124.794,21.504c40.396-17.435,68.609-58.76,68.071-103.091c0-0.026,0.003-0.052,0.003-0.078
		c-0.131-6.461-0.16-12.895-0.718-19.339c-0.638-7.359-2.384-14.064-4.358-21.119c-1.994-7.129-4.406-14.14-6.974-21.08
		c-7.382-19.95-16.273-39.356-25.576-58.472c-6.093-12.52-12.462-24.905-18.966-37.216c-7.298-13.814-15.6-27.256-20.92-41.999
		c-7.621-21.119-10.311-48.041,6.148-65.827c16.304-17.619,43.865-18.315,65.979-15.733c10,1.168,19.987,4.252,28.283,10.031
		c6.187,4.31,9.813,11.151,11.941,18.129c6.895,22.614,1.13,48.691-4.845,70.81c-4.237,15.686-9.504,31.05-13.511,46.811
		c-3.855,15.164-6.99,30.508-9.455,45.958c-8.556,53.64-9.976,112.509,13.392,162.807c10.063,21.66,26.013,40.532,46.404,53.084
		c22.095,13.601,48.513,17.696,74.059,15.865c34.504-2.473,66.449-16.921,87.506-44.783c12.423-16.437,19.35-37.326,20.81-57.763
		C490.488,377.701,474.041,361.86,455.127,358.988z M461.681,432.014c-9.254,18.965-23.868,32.18-42.252,40.903
		c-21.448,10.178-48.144,12.606-71.333,8.392c-23.47-4.266-43.407-16.914-58.254-35.424c-14.316-17.848-21.924-40.575-26.273-62.726
		c-5.379-27.393-5.08-55.889-2.584-83.586c2.769-30.716,9.263-61.075,17.772-90.684c7.983-27.78,17.164-55.145,16.667-84.442
		c-0.35-20.615-6.486-40.327-23.602-52.887c-8.77-6.436-19.915-9.714-30.499-11.526c-13.762-2.356-28.004-2.721-41.829-0.748
		c-23.154,3.304-45.018,15.457-54.91,37.456c-11.508,25.591-5.401,54.346,5.365,79.039c4.361,10.003,10.026,19.44,15.163,29.056
		c4.946,9.258,9.787,18.572,14.526,27.938c7.58,14.979,14.841,30.125,21.562,45.51c4.801,10.99,9.215,22.165,13.013,33.542
		c1.908,5.715,3.823,11.54,5.339,17.364c2.422,9.304,2.094,19.101,2.287,28.631c0,0.012-0.002,0.024-0.002,0.037
		c0.568,44.011-31.651,81.869-73.668,92.201c-42.858,10.539-88.027-10.843-108.396-49.554
		c-16.026-30.455-12.382-67.638,6.779-95.695c19.742-28.907,54.801-43.347,89.128-40.418c7.353,0.627,10.473-7.967,7.771-13.542
		c-13.083-27.002-29.834-52.661-38.596-81.515c-7.797-25.676-9.059-53.121-0.808-78.828c6.927-21.585,21.477-40.209,40.326-52.666
		c19.866-13.129,43.55-18.974,67.149-19.738c23.859-0.772,48.923,2.438,70.544,13.043c18.458,9.054,32.933,23.635,42.205,41.932
		c23.773,46.911,5.918,101.784-7.588,148.636c-8.496,29.473-14.304,59.835-16.545,90.441c-2,27.316-0.967,55.98,7.631,82.19
		c7.337,22.364,22.018,42.401,46.238,47.324c21.34,4.338,48.577,0.332,64.105-16.133c6.909-7.326,11.063-16.993,12.494-26.889
		c0.902-6.241,1.853-11.49,6.421-16.217c4.449-4.604,10.593-6.073,16.793-5.629c9.271,1.107,16.563,9.293,17.217,18.45
		C471.902,407.354,466.9,421.319,461.681,432.014z"/>
	<path d="M118.778,304.419c-23.716,3.05-44.249,20.777-48.326,44.783c-4.07,23.959,8.959,47.783,30.893,57.997
		c22.434,10.448,49.805,5.222,66.542-13.091c13.839-15.142,17.548-37.073,9.883-55.945
		C168.062,314.547,144.163,301.154,118.778,304.419z M160.413,342.949c7.143,17.585,1.684,36.816-15.644,46.826
		c-18.328,10.588-42.412,3.378-52.803-14.636c-10.404-18.037-1.324-39.762,16.088-49.073
		C126.017,316.46,152.399,323.452,160.413,342.949z"/>
</g>
<g>
</g>
<g>
</g>
<g>
</g>
<g>
</g>
<g>
</g>
<g>
</g>
<g>
</g>
<g>
</g>
<g>
</g>
<g>
</g>
<g>
</g>
<g>
</g>
<g>
</g>
<g>
</g>
<g>
</g>
</svg>
