<?xml version="1.0" encoding="iso-8859-1"?>
<!-- Generator: Adobe Illustrator 18.0.0, SVG Export Plug-In . SVG Version: 6.00 Build 0)  -->
<!DOCTYPE svg PUBLIC "-//W3C//DTD SVG 1.1//EN" "http://www.w3.org/Graphics/SVG/1.1/DTD/svg11.dtd">
<svg version="1.1" id="Capa_1" xmlns="http://www.w3.org/2000/svg" xmlns:xlink="http://www.w3.org/1999/xlink" x="0px" y="0px"
	 viewBox="0 0 508.335 508.335" style="enable-background:new 0 0 508.335 508.335;" xml:space="preserve">
<g>
	<path d="M37.868,283.871c23.113,0,46.226,0,69.339,0c13.861,0,27.722,0,41.583,0c3.123,0,6.246,0,9.369,0
		c9.628,0,18.017-3.43,25.459-9.363c10.589-8.442,12.489-20.863,13.234-33.449c0.73-12.338,6.296-24.317,14.435-33.48
		c15.869-17.865,42.616-24.262,64.742-14.888c19.328,8.189,33.331,26.598,35.306,47.601c0.556,5.917,0.29,11.633,2.118,17.392
		c1.932,6.086,5.598,11.572,10.191,15.963c6.999,6.692,16.694,10.225,26.309,10.225c24.952,0,49.904,0,74.857,0
		c12.977,0,25.955,0,38.932,0c2.228,0,4.456,0,6.684,0c12.236,0,23.721-6.06,30.873-15.91c15.458-21.29,4.013-50.884-20.328-58.61
		c-9.439-2.996-21.469-1.48-31.198-1.48c-22.588,0-45.175,0-67.763,0c-12.982-43.039-47.331-77.214-90.579-90.138
		c-50.717-15.155-107.104,2.909-140.523,43.615c-11.265,13.721-19.645,29.556-24.722,46.523c-22.557,0-45.113,0-67.67,0
		c-10.099,0-21.315-1.15-31.179,1.48c-26.159,6.975-35.269,39.926-18.921,60.432C15.592,278.786,26.465,283.599,37.868,283.871z
		 M30.514,227.187c3.486-1.667,7.72-1.316,11.499-1.316c5.5,0,11,0,16.5,0c24.849,0,49.697,0,74.546,0
		c3.915,0,7.731-2.734,8.679-6.607c12.594-51.5,59.183-88.835,112.386-88.835c45.713,0,86.718,27.575,105.669,68.837
		c2.932,6.383,5.011,13.188,6.683,19.998c0.951,3.873,4.761,6.607,8.679,6.607c24.872,0,49.744,0,74.616,0c5.505,0,11.01,0,16.516,0
		c3.863,0,7.855-0.227,11.503,1.316c9.105,3.851,14.258,13.438,12.156,23.129c-1.963,9.052-10.334,15.555-19.522,15.555
		c-23.448,0-46.897,0-70.346,0c-13.729,0-27.458,0-41.188,0c-10.532,0-20.573,0.185-26.814-10.287
		c-2.595-4.354-2.388-9.03-2.642-13.909c-0.325-6.226-1.496-12.463-3.334-18.412c-3.453-11.179-9.739-21.301-17.737-29.782
		c-16.791-17.804-42.2-25.78-66.189-22.054c-27.711,4.304-50.148,24.138-59.537,50.271c-2.229,6.205-3.242,12.815-3.786,19.361
		c-0.485,5.838-0.264,10.469-3.356,15.657c-3.596,6.034-10.516,9.155-17.337,9.155c-40.097,0-80.194,0-120.291,0
		c-9.535-0.227-17.07-6.401-19.511-15.555C15.727,240.451,21.883,231.315,30.514,227.187z"/>
	<path d="M39.197,395.895c4.356,0,8.713,0,13.069,0c49.627,0,99.255,0,148.882,0c63.173,0,126.346,0,189.519,0
		c20.842,0,41.684,0,62.526,0c16.772,0,33.428,1.189,45.88-13.063c10.225-11.704,11.491-27.421,5.589-41.376
		c-5.502-13.008-19.435-20.775-33.083-21.495c-0.369-0.04-0.748-0.065-1.144-0.065c-32.64,0-65.28,0-97.92,0
		c-64.162,0-128.323,0-192.485,0c-45.046,0-90.092,0-135.138,0c-2.81,0-5.621-0.033-8.43,0.033
		c-12.78,0.304-24.049,7.565-30.952,18.036c-7.228,10.965-6.802,24.707-1.87,36.369C9.525,388.245,24.707,395.895,39.197,395.895z
		 M25.925,341.805c5.111-3.711,10.549-3.909,16.441-3.909c42.761,0,85.522,0,128.283,0c64.408,0,128.817,0,193.225,0
		c35.419,0,70.837,0,106.256,0c0.102,0,0.203,0,0.305,0c10.159,0.242,17.682,7.122,19.799,16.882
		c1.973,9.094-4.36,18.768-12.771,21.875c-4.115,1.52-8.426,1.243-12.722,1.243c-16.247,0-32.494,0-48.741,0
		c-60.44,0-120.879,0-181.319,0c-55.503,0-111.005,0-166.508,0c-10.076,0-20.151,0-30.227,0
		C19.254,377.895,10.489,353.013,25.925,341.805z"/>
</g>
<g>
</g>
<g>
</g>
<g>
</g>
<g>
</g>
<g>
</g>
<g>
</g>
<g>
</g>
<g>
</g>
<g>
</g>
<g>
</g>
<g>
</g>
<g>
</g>
<g>
</g>
<g>
</g>
<g>
</g>
</svg>
