<?xml version="1.0" encoding="iso-8859-1"?>
<!-- Generator: Adobe Illustrator 18.0.0, SVG Export Plug-In . SVG Version: 6.00 Build 0)  -->
<!DOCTYPE svg PUBLIC "-//W3C//DTD SVG 1.1//EN" "http://www.w3.org/Graphics/SVG/1.1/DTD/svg11.dtd">
<svg version="1.1" id="Capa_1" xmlns="http://www.w3.org/2000/svg" xmlns:xlink="http://www.w3.org/1999/xlink" x="0px" y="0px"
	 viewBox="0 0 499.304 499.304" style="enable-background:new 0 0 499.304 499.304;" xml:space="preserve">
<path d="M438.59,248.33c-1.205-21.498-18.632-36.012-39.792-36.012c-8.786,0-17.571,0-26.357,0
	c1.829-26.097,5.543-52.017,11.861-77.434c5.541-22.292,13.086-44.502,25.286-64.093c2.276-3.655,4.83-7.105,7.239-10.214
	c4.331-5.589,6.892-11.785,7.812-18.791c1.605-12.232-3.417-24.737-12.75-32.731c-9.753-8.354-23.112-10.95-35.368-7.331
	c-12.307,3.633-19.719,13.846-26.63,23.927c-18.086,26.379-29.291,57.571-37.321,88.313c-8.384,32.093-12.935,65.246-14.987,98.354
	c-31.949,0-63.899,0-95.848,0c-3.444-56.163-13.846-113.524-39.136-164.091c-5.305-10.607-11.501-20.783-18.699-30.212
	c-8.031-10.521-17.746-17.208-31.29-17.959C85.175-1.466,67.092,28.714,77.699,52.765c2.424,5.497,6.235,9.44,9.492,14.161
	c3.427,4.967,6.403,10.236,9.161,15.597c6.334,12.31,10.972,25.42,14.922,38.664c8.825,29.591,13.469,60.349,15.597,91.13
	c-8.787,0-17.573,0-26.36,0c-21.604,0-39.328,15.125-39.857,37.37c-0.284,11.942,6.145,23.45,15.661,30.36
	c7.16,5.199,15.494,7.01,24.196,7.01c8.786,0,17.572,0,26.358,0c-1.829,26.097-5.543,52.016-11.861,77.434
	c-5.541,22.292-13.086,44.502-25.286,64.092c-2.276,3.655-4.83,7.105-7.239,10.214c-4.332,5.589-6.892,11.785-7.812,18.791
	c-1.605,12.232,3.417,24.737,12.75,32.731c11.08,9.491,26.934,11.573,40.131,5.442c11.303-5.251,18.418-16.526,24.926-26.695
	c16.866-26.355,27.497-56.798,35.107-86.976c7.833-31.061,12.158-63.058,14.142-95.032c31.949,0,63.899,0,95.848,0
	c3.444,56.163,13.846,113.524,39.136,164.091c10.564,21.123,25.378,48.892,52.484,48.142c28.695-0.794,44.667-33.939,29.842-57.522
	c-2.922-4.649-6.393-8.373-9.45-13.184c-3.102-4.882-5.819-10.004-8.35-15.201c-5.946-12.205-10.318-25.148-14.067-38.175
	c-8.256-28.685-12.672-58.395-14.732-88.151c8.786,0,17.573,0,26.359,0c21.16,0,38.586-14.514,39.792-36.012
	c0.047-0.435,0.077-0.883,0.065-1.357C438.667,249.213,438.637,248.765,438.59,248.33z M408.382,267.796
	c-3.935,1.882-9.211,1.261-13.474,1.261c-10.676,0-21.353,0-32.029,0c-4.707,0-9.263,4.097-9,9
	c1.59,29.62,5.385,59.211,12.293,88.077c5.578,23.307,13.406,46.614,25.406,67.452c4.769,8.282,12.997,15.666,15.148,25.086
	c2.375,10.401-5.643,19.826-15.225,22.283c-11.758,3.014-19.413-6.759-25.292-15.185c-7.033-10.079-12.852-20.978-17.997-32.122
	c-22.235-48.162-30.58-103.022-33.134-155.591c-0.238-4.899-3.914-9-9-9c-37.615,0-75.229,0-112.844,0c-5.086,0-8.762,4.101-9,9
	c-2.796,57.552-12.566,117.996-39.973,169.375c-5.257,9.855-11.228,20.271-19.007,28.379c-8.357,8.711-21.71,6.312-29.063-2.146
	c-6.338-7.29-4.209-18.034,1.223-24.936c6.405-8.137,11.671-16.96,16.202-26.262c21.608-44.356,29.197-95.618,31.817-144.41
	c0.263-4.903-4.293-9-9-9c-10.677,0-21.353,0-32.03,0c-4.552,0-8.794,0.19-13.201-1.209c-7.698-2.444-12.363-10.448-12.547-18.161
	c-0.196-8.229,5.163-14.708,12.274-18.109c3.935-1.882,9.211-1.261,13.474-1.261c10.677,0,21.353,0,32.03,0c4.707,0,9.263-4.097,9-9
	c-1.591-29.62-5.385-59.211-12.293-88.077c-5.578-23.307-13.406-46.614-25.406-67.452c-4.769-8.282-12.997-15.666-15.148-25.086
	c-2.139-9.369,4.536-18.878,13.241-21.757c10.183-3.367,18.282,2.466,24.13,10.268c7.2,9.606,13.175,20.101,18.468,30.856
	c24.329,49.433,33.16,106.725,35.809,161.249c0.238,4.899,3.914,9,9,9c37.615,0,75.229,0,112.844,0c5.086,0,8.762-4.101,9-9
	c2.796-57.552,12.566-117.996,39.973-169.375c5.221-9.788,11.146-20.077,18.81-28.183c6.386-6.755,17.918-7.697,25.301-1.977
	c7.971,6.177,9.967,16.863,5.073,25.563c-2.283,4.058-5.68,7.568-8.296,11.441c-2.928,4.333-5.514,8.891-7.94,13.52
	c-23.636,45.101-31.423,98.791-34.12,149.011c-0.263,4.903,4.293,9,9,9c10.676,0,21.353,0,32.029,0c4.552,0,8.794-0.19,13.2,1.209
	c7.698,2.443,12.363,10.448,12.547,18.161C420.457,258.003,415.758,264.267,408.382,267.796z"/>
<g>
</g>
<g>
</g>
<g>
</g>
<g>
</g>
<g>
</g>
<g>
</g>
<g>
</g>
<g>
</g>
<g>
</g>
<g>
</g>
<g>
</g>
<g>
</g>
<g>
</g>
<g>
</g>
<g>
</g>
</svg>
