<?xml version="1.0" encoding="iso-8859-1"?>
<!-- Generator: Adobe Illustrator 18.0.0, SVG Export Plug-In . SVG Version: 6.00 Build 0)  -->
<!DOCTYPE svg PUBLIC "-//W3C//DTD SVG 1.1//EN" "http://www.w3.org/Graphics/SVG/1.1/DTD/svg11.dtd">
<svg version="1.1" id="Capa_1" xmlns="http://www.w3.org/2000/svg" xmlns:xlink="http://www.w3.org/1999/xlink" x="0px" y="0px"
	 viewBox="0 0 447.941 447.941" style="enable-background:new 0 0 447.941 447.941;" xml:space="preserve">
<path d="M26.208,330.835c6.182,6.182,12.364,12.364,18.545,18.545c-5.451,5.451-10.903,10.903-16.354,16.354
	c-14.965,14.965-16.551,36.408-3.48,53.153c7.3,9.352,20.187,13.998,31.769,13.112c9.786-0.748,18.252-5.325,25.106-12.179
	c5.567-5.567,11.133-11.133,16.7-16.7c6.182,6.182,12.363,12.363,18.545,18.545c10.271,10.271,20.148,22.948,35.239,25.67
	c28.16,5.079,51.889-22.675,42.755-49.687c-4.321-12.778-17.063-22.531-26.318-31.787c-5.494-5.494-10.988-10.988-16.481-16.481
	c25.03-25.03,50.061-50.061,75.091-75.091c43.314-43.314,86.628-86.628,129.941-129.942c4.871-4.87,9.741-9.741,14.612-14.612
	c0.001,16.793,0.001,33.586,0.002,50.379c0,11.332,0.001,22.663,0.001,33.995c0.001,20.048,13.439,37.217,33.839,39.655
	c22.429,2.681,42.162-15.745,42.161-38.064c0-6.815,0-13.631-0.001-20.446c-0.001-30.362-0.002-60.724-0.004-91.087
	c-0.001-22.051-0.232-44.116,0.004-66.166c0.004-0.404-0.018-0.79-0.056-1.165c-1.085-20.673-17.745-36.835-38.669-36.835
	c-7.352,0-14.703,0-22.055,0c-30.615,0-61.231,0-91.846,0c-20.994,0-41.988,0-62.982,0c-21.975,0-39.913,18.73-38.334,40.793
	C195.427,61.607,213.238,76,233.476,76c28.219,0,56.438,0,84.657,0.001c-22.03,22.03-44.06,44.06-66.09,66.09
	c-43.313,43.313-86.626,86.626-129.94,129.94c-7.87,7.87-15.74,15.74-23.61,23.61c-6.182-6.182-12.364-12.364-18.545-18.546
	c-9.907-9.907-19.384-22.008-33.642-25.378c-12.762-3.016-25.943,1.268-35.299,10.177c-9.548,9.091-12.539,22.707-10.176,35.299
	C3.452,311.171,16.664,321.292,26.208,330.835z M35.853,268.834c7.107-0.66,12.812,2.434,17.666,7.288
	c9.943,9.943,19.886,19.885,29.828,29.828c2.927,2.927,5.854,5.854,8.782,8.782c3.467,3.467,9.26,3.467,12.728,0
	c27.151-27.151,54.302-54.302,81.454-81.454c43.313-43.313,86.626-86.626,129.939-129.94c9.991-9.991,19.983-19.983,29.974-29.974
	c5.553-5.554,1.486-15.364-6.364-15.364c-24.036,0-48.072,0-72.108,0c-11.332,0-22.664,0-33.995,0
	c-5.081,0-10.035-0.801-14.161-4.091c-7.781-6.203-9.965-16.879-5.28-25.622C219.447,18.713,228.966,18,238.402,18
	c10.79,0,21.581,0,32.371,0c31.664,0,63.329,0,94.993,0c12.64,0,25.28,0,37.92,0c2.062,0,4.125,0,6.187,0
	c11.134,0,19.747,9.064,20.007,20c-0.534,49.787-0.003,99.607-0.001,149.396c0,8.784,0.001,17.568,0.001,26.352
	c0,3.274-0.008,6.574-1.315,9.665c-3.85,9.105-13.438,14.259-23.129,12.158c-9.053-1.963-15.556-10.334-15.556-19.522
	c0-2.453,0-4.906,0-7.358c-0.001-13.732-0.001-27.463-0.002-41.195c-0.001-19.829-0.001-39.658-0.002-59.487
	c0-7.85-9.81-11.918-15.364-6.364c-27.152,27.152-54.303,54.303-81.455,81.455c-43.314,43.314-86.628,86.628-129.941,129.942
	c-9.992,9.991-19.983,19.983-29.975,29.975c-3.467,3.468-3.467,9.26,0,12.728c8.303,8.303,16.606,16.606,24.909,24.909
	c8.307,8.307,21.051,17.178,21.052,30.018c0,10.857-9.591,19.061-19.992,19.326c-6.945,0.177-12.007-3.723-16.614-8.33
	c-10.189-10.188-20.377-20.377-30.566-30.565c-2.357-2.357-4.715-4.715-7.072-7.072c-3.467-3.467-9.26-3.467-12.728,0
	c-6.645,6.645-13.29,13.29-19.935,19.935c-3.178,3.178-6.003,6.205-10.035,8.358c-8.008,4.276-17.706,1.089-23.577-5.077
	c-5.303-5.57-5.766-13.737-3.426-20.656c1.426-4.219,5.156-7.312,8.215-10.37c6.824-6.824,13.649-13.649,20.473-20.473
	c3.467-3.468,3.467-9.26,0-12.728c-8.303-8.303-16.606-16.606-24.909-24.909c-8.308-8.307-21.051-17.178-21.052-30.018
	C17.884,278.285,26.234,269.727,35.853,268.834z"/>
<g>
</g>
<g>
</g>
<g>
</g>
<g>
</g>
<g>
</g>
<g>
</g>
<g>
</g>
<g>
</g>
<g>
</g>
<g>
</g>
<g>
</g>
<g>
</g>
<g>
</g>
<g>
</g>
<g>
</g>
</svg>
