<?xml version="1.0" encoding="iso-8859-1"?>
<!-- Generator: Adobe Illustrator 18.0.0, SVG Export Plug-In . SVG Version: 6.00 Build 0)  -->
<!DOCTYPE svg PUBLIC "-//W3C//DTD SVG 1.1//EN" "http://www.w3.org/Graphics/SVG/1.1/DTD/svg11.dtd">
<svg version="1.1" id="Capa_1" xmlns="http://www.w3.org/2000/svg" xmlns:xlink="http://www.w3.org/1999/xlink" x="0px" y="0px"
	 viewBox="0 0 501.918 501.918" style="enable-background:new 0 0 501.918 501.918;" xml:space="preserve">
<path d="M500.256,348.122c-7.88-23.619-15.761-47.238-23.641-70.857c-1.243-3.725-2.486-7.45-3.728-11.175
	c-3.193-9.572-9.281-17.39-18.153-22.324c-13.613-7.569-26.869-3.482-40.314,1.003c-23.88,7.965-47.76,15.93-71.64,23.895
	c-10.14,3.382-17.88,10.493-22.409,19.818c0-20.906,0-41.811,0-62.717c0-23.718,0-47.436,0-71.154
	c0-41.46-24.51-77.69-62.793-93.406c-32.441-13.318-70.119-6.264-97.363,14.836c-19.12-14.907-42.897-22.717-67.361-21.39
	c-23.439,1.271-45.561,11.262-62.57,27.312c-17.08,16.116-27.041,38.084-29.735,61.209c-0.716,6.15-0.526,12.403-0.526,18.588
	c0,56.156,0,112.312,0,168.468c0,23.609,0,47.218,0,70.828c0,6.508-0.243,12.859,1.458,19.242
	c6.882,25.809,39.377,34.77,59.6,18.647c10.204-8.136,13.878-20.079,13.878-32.628c0-7.668,0-15.337,0-23.005
	c0-28.654,0-57.307,0-85.961c0-48.012,0-96.024,0-144.036c0-17.712,17.377-27.827,33.276-21.879
	c10.245,3.833,14.492,14.359,14.492,24.41c0,19.884,0,39.767,0,59.65c0,58.887,0,117.774,0,176.661c0,5.675,0,11.351,0,17.026
	c0,20.338,14.944,35.703,34.727,38.068c21.601,2.582,40.21-16.832,40.21-37.665c0-5.111,0-10.222,0-15.333
	c0-58.415,0-116.83,0-175.245c0-20.72,0-41.439,0-62.159c0-9.267,2.429-17.623,10.646-23.212
	c15.594-10.607,37.122,0.561,37.122,19.461c0,50.792,0,101.583,0,152.375c0,6.286-0.113,12.586,0.033,18.871
	c0.543,23.394,10.03,45.608,25.456,63.016c32.051,36.168,88.378,42.684,128.318,16.038c12.357-8.244,22.539-19.219,30.021-31.86
	c3.859,9.002,9.27,16.958,18.943,21.655c14.211,6.9,30.724,3.827,42.289-6.607c10.211-9.213,13.605-24.338,10.067-37.329
	C500.482,348.885,500.385,348.508,500.256,348.122z M356.563,341.633c-2.205,1.324-4.677,2.343-7.41,2.999
	c-9.482,2.273-19.74-2.857-24.989-10.699c-2.901-4.334-3.652-9.077-3.812-13.949c1.554,3.32,3.528,6.458,5.848,9.291
	C333.434,338.105,345.355,342.273,356.563,341.633z M476.769,374.757c-6.611,5.965-17.766,5.435-24.438-0.043
	c-4.912-4.033-6.411-9.551-8.323-15.282c-1.651-4.947-3.301-9.894-4.952-14.841c-2.807-8.413-14.687-8.739-17.357,0
	c-6.504,21.286-21.276,38.56-40.945,48.836c-19.881,10.387-43.555,10.899-64.474,3.532c-19.805-6.974-35.779-22.386-45.067-40.982
	c-6.025-12.063-7.78-25.161-7.78-38.463c0-52.538,0-105.075,0-157.613c0-11.984-1.427-23.074-9.219-32.947
	c-15.973-20.237-46.848-20.02-63.876-1.321c-13.595,14.93-10.673,36.006-10.673,54.591c0,60.202,0,120.404,0,180.606
	c0,16.253,0,32.505,0,48.758c0,17.335-20.782,25.999-33.235,14.093c-5.828-5.573-5.702-12.762-5.702-20.054
	c0-54.798,0-109.597,0-164.395c0-24.808,0-49.616,0-74.425c0-3.939,0-7.877,0-11.816c0-25.455-24.083-44.615-48.743-41
	c-20.18,2.958-35.025,21.15-35.025,41.325c0,5.255,0,10.51,0,15.766c0,26.24,0,52.481,0,78.721c0,52.838,0,105.677,0,158.515
	c0,9.884-3.494,18.956-13.869,22.249c-13.553,4.302-25.068-7.032-25.068-20.104c0-18.358,0-36.715,0-55.072
	c0-59.595,0-119.19,0-178.785c0-6.632,0-13.263,0-19.895c0-14.098,2.992-27.605,9.698-40.071
	C37.725,96.043,55.04,82.122,75.158,75.914c23.652-7.299,49.234-2.662,69.652,10.966c3.226,2.153,6.166,4.631,9.022,7.248
	c3.736,3.423,8.991,3.423,12.728,0c18.244-16.714,43.621-24.698,68.151-20.686c20.851,3.411,39.995,15.144,52.379,32.287
	c10.164,14.071,15.28,30.803,15.28,48.102c0,7.919,0,15.838,0,23.757c0,31.096,0,62.192,0,93.288c0,12.762,0,25.524,0,38.286
	c0,7.782-0.498,15.707,1.521,23.302c4.919,18.507,23.435,30.958,42.163,30.556c19.103-0.411,35.843-15.149,39.314-33.776
	c1.17-6.277-4.046-13.414-11.071-11.071c-5.79,1.931-11.613,4.336-17.607,5.547c-9.515,1.922-18.619-5.465-21.269-14.109
	c-2.733-8.916,2.124-19.482,10.792-23.101c2.79-1.165,5.782-1.965,8.645-2.92c24.895-8.303,49.79-16.607,74.685-24.91
	c10.923-3.643,22.297,1.141,26.046,12.376c2.718,8.147,5.436,16.294,8.155,24.441c6.385,19.137,12.77,38.275,19.156,57.413
	C485.444,361.207,483.202,368.953,476.769,374.757z"/>
<g>
</g>
<g>
</g>
<g>
</g>
<g>
</g>
<g>
</g>
<g>
</g>
<g>
</g>
<g>
</g>
<g>
</g>
<g>
</g>
<g>
</g>
<g>
</g>
<g>
</g>
<g>
</g>
<g>
</g>
</svg>
