<?xml version="1.0" encoding="iso-8859-1"?>
<!-- Generator: Adobe Illustrator 18.0.0, SVG Export Plug-In . SVG Version: 6.00 Build 0)  -->
<!DOCTYPE svg PUBLIC "-//W3C//DTD SVG 1.1//EN" "http://www.w3.org/Graphics/SVG/1.1/DTD/svg11.dtd">
<svg version="1.1" id="Capa_1" xmlns="http://www.w3.org/2000/svg" xmlns:xlink="http://www.w3.org/1999/xlink" x="0px" y="0px"
	 viewBox="0 0 497.626 497.626" style="enable-background:new 0 0 497.626 497.626;" xml:space="preserve">
<g>
	<path d="M83.286,284.615c-11.924,46.022-3.312,96.163,22.703,135.837c24.796,37.814,64.553,64.823,108.865,73.818
		c45.114,9.157,92.953-0.627,130.816-26.789c37.253-25.74,63.42-66.039,71.303-110.667c8.714-49.328-4.979-99.643-36.366-138.451
		c-11.466-14.177-25.519-26.378-41.006-36.109c36.696-23.228,63.802-60.059,74.754-102.331c3.18-12.272,4.812-25.019,5.224-37.678
		c0.409-12.599-3.119-24.392-12.857-32.899c-9.637-8.419-22.832-11.079-35.104-7.807c-12.146,3.239-21.071,12.964-25.316,24.455
		c-2.04,5.522-1.745,11.503-2.012,17.276c-0.259,5.601-1.155,11.083-2.433,16.536c-2.465,10.525-6.806,20.322-12.552,29.451
		c-11.107,17.647-28.508,31.346-48.08,38.41c-41.638,15.029-88.94-1.389-112.891-38.41c-5.872-9.076-9.955-18.978-12.552-29.451
		c-1.237-4.987-1.977-10.031-2.35-15.15c-0.461-6.338-0.142-12.511-2.095-18.662c-3.784-11.921-13.57-20.727-25.316-24.455
		C113.684-2.38,100.71,1.538,90.92,9.344c-10.024,7.992-13.14,20.7-12.857,32.899c0.294,12.672,2.159,25.388,5.224,37.678
		c5.961,23.902,17.587,45.932,32.855,65.15c11.637,14.647,26.013,27.229,41.9,37.213C121.345,205.511,94.239,242.343,83.286,284.615
		z M169.518,196.28c3.654-2.245,7.424-4.294,11.243-6.241c5.87-2.992,5.87-12.551,0-15.542
		c-42.448-21.637-72.644-61.218-82.052-107.949c-1.116-5.543-1.816-11.127-2.261-16.761c-0.459-5.806-1.142-12.067,0.372-17.748
		c2.578-9.668,12.139-14.507,21.536-13.834c9.06,0.648,16.199,9.479,16.815,18.085c0.852,11.902,1.541,23.25,5.041,34.775
		c13.687,45.06,55.07,76.609,101.63,79.999c46.394,3.378,91.492-24.476,110.476-66.643c4.948-10.99,7.878-22.334,9.382-34.269
		c0.645-5.116,0.086-10.472,0.934-15.518c0.866-5.155,3.576-9.173,7.454-12.561c6.933-6.057,18.273-4.923,24.881,0.85
		c8.695,7.596,6.888,19.534,5.976,29.856c-4.144,46.918-31.957,89.893-71.605,114.732c-4.037,2.529-8.215,4.825-12.458,6.988
		c-3.539,1.804-4.799,4.809-4.514,7.771c-0.285,2.962,0.975,5.967,4.514,7.771c42.448,21.637,72.644,61.218,82.052,107.949
		c8.812,43.77-3.373,90.78-31.548,125.256c-27.74,33.944-69.154,54.654-112.951,56.342c-43.734,1.685-86.139-16.068-116.363-47.528
		c-31.118-32.391-45.57-77.326-41.227-121.791C101.419,263.413,129.695,220.743,169.518,196.28z"/>
	<path d="M248.822,440.478c47.455-0.314,89.262-29.94,106.426-73.928c17.076-43.764,2.904-95.373-32.365-125.754
		c-36.129-31.123-88.758-35.959-130.228-12.678c-41.606,23.357-62.941,71.108-55.824,117.679
		C145.119,400.031,194.742,440.12,248.822,440.478z M206.383,241.167c39.701-20.353,88.448-8.172,116.616,25.359
		c28.004,33.336,28.238,84.471,1.645,118.632c-18.228,23.415-46.195,37.123-75.823,37.319c-44.083-0.292-82.442-30.76-93.038-73.489
		C145.093,305.872,167.423,261.141,206.383,241.167z"/>
</g>
<g>
</g>
<g>
</g>
<g>
</g>
<g>
</g>
<g>
</g>
<g>
</g>
<g>
</g>
<g>
</g>
<g>
</g>
<g>
</g>
<g>
</g>
<g>
</g>
<g>
</g>
<g>
</g>
<g>
</g>
</svg>
