<?xml version="1.0" encoding="iso-8859-1"?>
<!-- Generator: Adobe Illustrator 18.0.0, SVG Export Plug-In . SVG Version: 6.00 Build 0)  -->
<!DOCTYPE svg PUBLIC "-//W3C//DTD SVG 1.1//EN" "http://www.w3.org/Graphics/SVG/1.1/DTD/svg11.dtd">
<svg version="1.1" id="Capa_1" xmlns="http://www.w3.org/2000/svg" xmlns:xlink="http://www.w3.org/1999/xlink" x="0px" y="0px"
	 viewBox="0 0 477.862 477.862" style="enable-background:new 0 0 477.862 477.862;" xml:space="preserve">
<g>
	<path d="M392.81,74.083c-16.974-3.561-34.789-2.821-51.441,1.963c-10.094-30.823-34.075-55.24-64.644-66.696
		C241.747-3.758,201.723,4.59,173.25,27.882C135.978-2.583,81.029-5.282,41.994,24.421C23.56,38.449,10.198,57.94,3.826,80.231
		c-2.996,10.482-3.823,21.34-3.823,32.185c0,51.689,0,103.379,0,155.068c0,29.351,0,58.701,0,88.052c0,9.094,0,18.187,0,27.281
		c0,5.679-0.103,11.116,0.844,16.759c4.417,26.301,36.925,37.744,58.183,23.73c11.83-7.798,16.972-20.755,16.972-34.458
		c0-18.759,0-37.518,0-56.278c0-61.506,0-123.011,0-184.517c0-13.224,0-26.447,0-39.671c0-21.142,22.72-35.414,41.823-26.383
		c11.259,5.322,17.429,16.119,17.429,28.302c0,49.09,0,98.179,0,147.268c0,44.663,0,89.325,0,133.988
		c0,24.591,22.489,41.204,45.903,37.272c18.083-3.037,30.097-20.662,30.097-38.189c0-16.65,0-33.3,0-49.95
		c0-61.706,0-123.412,0-185.119c0-15.543,0-31.087,0-46.63c0-15.789,12.987-28.862,28.656-29.722
		c16.844-0.925,30.596,13.119,30.596,29.664c0,47.956,0,95.913,0.001,143.869c0,37.888,0,75.775,0.001,113.662
		c-6.221,8.783-12.442,17.566-18.663,26.349c-7.116,10.047-16.138,20.218-20.638,31.801c-10.441,26.875,15.68,54.479,42.775,49.588
		c18.138-3.274,27.051-19.353,37.02-32.993c1.451-1.985,2.901-3.969,4.352-5.954c5.815,6.589,11.629,13.177,17.444,19.766
		c3.755,4.255,7.28,8.639,11.795,12.119c11.656,8.984,26.551,9.484,39.694,3.759c12.542-5.464,19.62-18.549,21.038-31.557
		c1.132-10.382-3.397-20.792-10.138-28.43c-8.606-9.752-17.212-19.503-25.818-29.255c-2.706-3.066-5.411-6.132-8.117-9.198
		c28.167-38.537,56.333-77.074,84.5-115.611c3.849-5.266,7.697-10.531,11.546-15.797c12.927-17.687,19.944-38.798,20.527-60.679
		C479.178,129.614,442.115,84.426,392.81,74.083z M453.06,212.473c-4.059,9.518-10.066,17.748-16.118,26.028
		c-31.065,42.502-62.13,85.005-93.195,127.507c-0.586,0.802-1.173,1.605-1.76,2.407c-2.461,3.367-1.078,8.091,1.407,10.906
		c7.66,8.68,15.32,17.359,22.98,26.039c4.506,5.106,9.012,10.211,13.518,15.317c3.428,3.884,6.725,7.801,7.395,13.219
		c1.432,11.576-6.431,20.722-17.529,22.854c-7.877,1.513-14.541-3.527-19.376-9.007c-9.101-10.313-18.202-20.625-27.303-30.937
		c-0.667-0.755-1.333-1.511-2-2.266c-4.162-4.716-10.934-2.558-14.135,1.821c-7.257,9.929-14.514,19.858-21.772,29.787
		c-3.84,5.254-8.228,9.988-16.539,10.626c-10.708,0.822-20.476-7.438-21.406-18.112c-1.01-11.593,10.517-23.2,16.774-32.034
		c7.414-10.467,14.827-20.933,22.241-31.4c0.607-0.63,1.119-1.369,1.502-2.22c0.752-1.414,0.963-3.009,0.766-4.577
		c0-44.541,0-89.082-0.001-133.623c0-30.023,0-60.047,0-90.07c0-9.339,0-18.678,0-28.017c0-6.859,0.097-13.447-1.515-20.226
		c-5.947-25.003-32.051-38.976-56.326-34.084c-21.217,4.276-37.411,24.704-37.411,46.14c0,14.167,0,28.333,0,42.5
		c0,61.609,0,123.218,0,184.826c0,17.93,0,35.859,0,53.788c0,12.504-8.365,22.283-21.405,21.973
		c-12.16-0.289-18.595-11.531-18.595-22.365c0-49.895,0-99.79,0-149.686c0-43.698,0-87.395,0-131.093
		c0-22.812-17.762-42.898-40.112-46.578c-24.858-4.093-49.224,12.389-54.202,37.215c-1.173,5.849-0.938,11.804-0.938,17.729
		c0,8.988,0,17.976,0,26.964c0,61.231,0,122.462,0,183.693c0,19.951,0,39.901,0,59.851c0,8.882-1.922,16.805-10.287,21.79
		c-13.684,8.156-29.713-3.475-29.713-18.268c0-47.122,0-94.244,0-141.367c0-46.827,0-93.654,0-140.481
		c0-30.561,15.735-58.906,41.716-75.03c33.895-21.035,78.646-15.186,107.172,12.216c3.59,3.448,9.138,3.448,12.728,0
		c24.243-23.288,59.288-30.851,91.029-19.986c28.359,9.707,49.287,34.838,55.904,63.704c1.02,4.448,6.623,7.985,11.071,6.286
		c24.098-9.202,50.675-8.425,73.812,3.269c20.541,10.381,36.36,28.665,43.749,50.433C462.022,170.078,461.429,192.85,453.06,212.473
		z"/>
	<path d="M378.176,130.639c-17.236-2.367-36.052,3.166-47.033,17.255c-0.003,0.003-0.005,0.007-0.008,0.011
		c-1.581,1.449-2.628,3.562-2.628,6.353c0,45.609,0,91.218,0,136.828c0,0.114,0,0.228,0,0.342c0,9.607,11.75,11.412,16.771,4.542
		c14.08-19.263,28.159-38.527,42.239-57.79c7.075-9.68,14.15-19.359,21.225-29.039c9.985-13.661,14.071-29.984,8.522-46.447
		C411.482,145.539,396.028,133.091,378.176,130.639z M400.521,187.232c-1.308,4.614-4.128,8.455-6.915,12.269
		c-15.7,21.48-31.399,42.959-47.099,64.439c0-35.434,0-70.868,0-106.302c13.53-13.563,36.687-12.633,49.251,2.3
		C402.002,167.359,403.073,178.23,400.521,187.232z"/>
</g>
<g>
</g>
<g>
</g>
<g>
</g>
<g>
</g>
<g>
</g>
<g>
</g>
<g>
</g>
<g>
</g>
<g>
</g>
<g>
</g>
<g>
</g>
<g>
</g>
<g>
</g>
<g>
</g>
<g>
</g>
</svg>
